<svg xmlns="http://www.w3.org/2000/svg" viewBox="0 0 148.06 189"><defs><style>.cls-1{fill:#f2f2f2;}.cls-2{fill:#fff;}</style></defs><title>whiteAsset 2</title><g id="Layer_2" data-name="Layer 2"><g id="Layer_1-2" data-name="Layer 1"><g id="logo_white" data-name="logo white"><path class="cls-1" d="M9.37,174.24v14.48H5.8V174.24H.63v-3.52H14.54v3.52Z"/><path class="cls-1" d="M29,188.72v-7.56H21.61v7.56H18v-18h3.57v6.91H29v-6.91h3.58v18Z"/><path class="cls-1" d="M37.25,188.72v-18H49.72v3.52h-8.9v3.08H46v3.53H40.82v4.34H50.1v3.53Z"/><path class="cls-2" d="M69.87,188.72H66.35l-2.22-9.26c-.13-.55-.26-1.11-.37-1.7s-.19-1-.24-1.39c0,.35-.11.81-.22,1.4s-.24,1.16-.37,1.69l-2.27,9.26H57.29l-3.75-18h3.75l1.57,8.76c.09.45.17,1,.26,1.53s.15,1.06.18,1.43c.07-.37.16-.85.28-1.43s.23-1.08.34-1.53L62,170.72h3.13l2.14,8.76q.15.68.33,1.53c.12.58.22,1.06.29,1.43,0-.37.09-.86.18-1.44s.17-1.09.25-1.52l1.57-8.76h3.7Z"/><path class="cls-2" d="M91.39,179.72a12.75,12.75,0,0,1-.52,3.76,8.56,8.56,0,0,1-1.53,2.94,7.08,7.08,0,0,1-2.46,1.9,8.37,8.37,0,0,1-6.61,0,7,7,0,0,1-2.45-1.9,8.56,8.56,0,0,1-1.53-2.94,13.64,13.64,0,0,1,0-7.53A8.42,8.42,0,0,1,77.82,173a7,7,0,0,1,2.45-1.91,8.37,8.37,0,0,1,6.61,0A7,7,0,0,1,89.34,173,8.42,8.42,0,0,1,90.87,176,12.82,12.82,0,0,1,91.39,179.72Zm-3.7,0a10.58,10.58,0,0,0-.23-2.25,5.51,5.51,0,0,0-.73-1.82,3.83,3.83,0,0,0-1.29-1.21,3.76,3.76,0,0,0-1.86-.43,3.83,3.83,0,0,0-1.87.43,3.71,3.71,0,0,0-1.28,1.21,5.52,5.52,0,0,0-.74,1.82,10.58,10.58,0,0,0-.23,2.25,10.72,10.72,0,0,0,.23,2.25,5.47,5.47,0,0,0,.74,1.81A3.62,3.62,0,0,0,81.71,185a3.83,3.83,0,0,0,1.87.43,3.54,3.54,0,0,0,3.15-1.64,5.46,5.46,0,0,0,.73-1.81A10.72,10.72,0,0,0,87.69,179.72Z"/><path class="cls-2" d="M109.76,179.72a12.75,12.75,0,0,1-.53,3.76,8.56,8.56,0,0,1-1.53,2.94,7.08,7.08,0,0,1-2.46,1.9,8.37,8.37,0,0,1-6.61,0,7,7,0,0,1-2.45-1.9,8.56,8.56,0,0,1-1.53-2.94,13.64,13.64,0,0,1,0-7.53A8.42,8.42,0,0,1,96.18,173a7,7,0,0,1,2.45-1.91,8.37,8.37,0,0,1,6.61,0A7,7,0,0,1,107.7,173a8.42,8.42,0,0,1,1.53,2.93A12.82,12.82,0,0,1,109.76,179.72Zm-3.71,0a10,10,0,0,0-.23-2.25,5.51,5.51,0,0,0-.73-1.82,3.54,3.54,0,0,0-3.15-1.64,3.83,3.83,0,0,0-1.87.43,3.71,3.71,0,0,0-1.28,1.21,5.52,5.52,0,0,0-.74,1.82,10.58,10.58,0,0,0-.23,2.25,10.72,10.72,0,0,0,.23,2.25,5.47,5.47,0,0,0,.74,1.81,3.62,3.62,0,0,0,1.28,1.21,3.83,3.83,0,0,0,1.87.43,3.76,3.76,0,0,0,1.86-.43,3.64,3.64,0,0,0,1.29-1.21,5.46,5.46,0,0,0,.73-1.81A10.09,10.09,0,0,0,106.05,179.72Z"/><path class="cls-2" d="M128,179.72a9.75,9.75,0,0,1-.78,4.07,8,8,0,0,1-2.08,2.81,8.59,8.59,0,0,1-3,1.6,11.46,11.46,0,0,1-3.38.52h-5.38v-18h5.63a12.64,12.64,0,0,1,3.57.47,7.26,7.26,0,0,1,2.83,1.56,7.37,7.37,0,0,1,1.87,2.79A11.19,11.19,0,0,1,128,179.72Zm-3.72,0a5.88,5.88,0,0,0-1.27-4.11,5.37,5.37,0,0,0-4.11-1.37H117v10.95h1.77a7.06,7.06,0,0,0,2.46-.39A4.38,4.38,0,0,0,124,182,7.21,7.21,0,0,0,124.29,179.72Z"/><path class="cls-2" d="M144.55,183.27a6.46,6.46,0,0,1-.41,2.34,4.64,4.64,0,0,1-1.29,1.81,5.84,5.84,0,0,1-2.2,1.17,10.89,10.89,0,0,1-3.17.41,9.59,9.59,0,0,1-4.12-.87,7.05,7.05,0,0,1-2.88-2.4l2.6-2.31A5.54,5.54,0,0,0,135.2,185a6.48,6.48,0,0,0,2.48.48,4.68,4.68,0,0,0,2.38-.47,1.6,1.6,0,0,0,.76-1.49,1.81,1.81,0,0,0-.15-.76,1.72,1.72,0,0,0-.58-.6,5.09,5.09,0,0,0-1.22-.54c-.54-.17-1.22-.35-2.06-.54a18.64,18.64,0,0,1-2.28-.67,6.31,6.31,0,0,1-1.78-1,3.89,3.89,0,0,1-1.16-1.49,5.28,5.28,0,0,1-.41-2.24,4.7,4.7,0,0,1,.5-2.21,5,5,0,0,1,1.37-1.66,6.49,6.49,0,0,1,2-1,8.46,8.46,0,0,1,2.51-.36,8.56,8.56,0,0,1,3.69.75,9.78,9.78,0,0,1,2.86,2.1l-2.59,2.53a6.79,6.79,0,0,0-1.87-1.38,5.16,5.16,0,0,0-2.22-.47,4.19,4.19,0,0,0-1.21.14,2.28,2.28,0,0,0-.8.37,1.4,1.4,0,0,0-.44.51,1.52,1.52,0,0,0-.12.59,1.46,1.46,0,0,0,.16.73,1.44,1.44,0,0,0,.58.53,5.32,5.32,0,0,0,1.11.44c.46.14,1.05.29,1.77.46s1.44.37,2.15.6a6.86,6.86,0,0,1,1.93,1,4.52,4.52,0,0,1,1.94,4Z"/><rect class="cls-2" x="6.38" y="147.86" width="8.58" height="20.34"/><path class="cls-2" d="M53.2,147.86v.44c0,.93,0,1.79,0,2.59s0,1.41,0,1.82q-.44-.86-1.32-2.25c-.59-.92-1.15-1.78-1.67-2.6H40.37L54,168.2h7.7V147.86H53.2Z"/><path class="cls-2" d="M26.74,147.86V168.2h8.57v-19c0-.39,0-.84,0-1.34H26.74Z"/><rect class="cls-2" x="82.45" y="147.86" width="8.57" height="20.34"/><path class="cls-2" d="M136.09,147.86a24.24,24.24,0,0,1-.53,4.14,12.9,12.9,0,0,1-1.76,4.35,8.63,8.63,0,0,1-3.08,2.9,10.06,10.06,0,0,1-9,0,8.63,8.63,0,0,1-3.08-2.9,13.11,13.11,0,0,1-1.76-4.35,23.3,23.3,0,0,1-.52-4.14h-8.88a29.74,29.74,0,0,0,1.23,7.78,20.31,20.31,0,0,0,3.67,7,16.71,16.71,0,0,0,5.89,4.56,20,20,0,0,0,15.85,0,16.75,16.75,0,0,0,5.9-4.56,20.66,20.66,0,0,0,3.67-7,30.17,30.17,0,0,0,1.22-7.78Z"/><path class="cls-2" d="M135.56,141.21a12.9,12.9,0,0,0-1.76-4.35,8.63,8.63,0,0,0-3.08-2.9,10.06,10.06,0,0,0-9,0,8.63,8.63,0,0,0-3.08,2.9,13.11,13.11,0,0,0-1.76,4.35,24.82,24.82,0,0,0-.55,5.4c0,.42,0,.84,0,1.25h19.68c0-.41,0-.83,0-1.25A24.8,24.8,0,0,0,135.56,141.21Z"/><path class="cls-2" d="M108.76,137.57a20.31,20.31,0,0,1,3.67-7,16.71,16.71,0,0,1,5.89-4.56,20.08,20.08,0,0,1,15.85,0,16.75,16.75,0,0,1,5.9,4.56,20.66,20.66,0,0,1,3.67,7,30.67,30.67,0,0,1,1.26,9c0,.42,0,.83,0,1.25h3.1L133.87,73.93,119.67,0,105.48,73.93l-8.63,44.95L88.22,73.93,74,0,59.84,73.93l-8.63,44.95L42.58,73.93,28.39,0,14.19,73.93,0,147.86H6.38V125H15v22.85H26.74V125h8.33l15.19,22.83,0,0H53.2c0-.77,0-1.54,0-2.3,0-.91,0-1.67,0-2.29V125h8.58v22.85H82.45V133.47H70.05V125h33.37v8.46H91v14.39h16.51c0-.42,0-.83,0-1.25A30.34,30.34,0,0,1,108.76,137.57Z"/><path class="cls-2" d="M36.51,142q-.88-1.39-1.32-2.25c0,.41,0,1,0,1.82s0,1.66,0,2.59,0,1.84,0,2.74c0,.35,0,.65,0,1h5.07l-2.16-3.23C37.67,143.81,37.11,142.94,36.51,142Z"/></g></g></g></svg>