<svg xmlns="http://www.w3.org/2000/svg" viewBox="0 0 364.26 514.32"><defs><style>.cls-1{fill:#fff;}</style></defs><title>teamAsset 1</title><g id="Layer_2" data-name="Layer 2"><g id="Layer_1-2" data-name="Layer 1"><path class="cls-1" d="M24.29,457.54V351.63h21V457.54Z"/><path class="cls-1" d="M141.13,457.54l-38.79-57.79q-2-3-4.15-6.44a62.57,62.57,0,0,1-3.25-5.52c0,1,0,2.5.08,4.47s.07,4.08.07,6.35,0,4.52.08,6.73.07,4.09.07,5.6v46.6h-21V351.63H94.64l37.27,56q2,3,4.13,6.43a61.43,61.43,0,0,1,3.23,5.53c0-1,0-2.5-.07-4.47s-.08-4.08-.08-6.35,0-4.52-.07-6.74-.08-4.08-.08-5.59V351.63h21V457.54Z"/><path class="cls-1" d="M231.87,372.36v85.18h-21V372.36H180.43V351.63h81.85v20.73Z"/><path class="cls-1" d="M364.26,404.59a74.83,74.83,0,0,1-3.11,22.16,50.16,50.16,0,0,1-9,17.25,40.89,40.89,0,0,1-14.45,11.2,49.13,49.13,0,0,1-38.88,0A40.89,40.89,0,0,1,284.37,444a50,50,0,0,1-9-17.25,80.54,80.54,0,0,1,0-44.33,50,50,0,0,1,9-17.25A40.86,40.86,0,0,1,298.82,354a49.13,49.13,0,0,1,38.88,0,40.86,40.86,0,0,1,14.45,11.19,50.16,50.16,0,0,1,9,17.25A75,75,0,0,1,364.26,404.59Zm-21.79,0a61.45,61.45,0,0,0-1.36-13.24,32.42,32.42,0,0,0-4.31-10.67,21.46,21.46,0,0,0-7.57-7.11,24.7,24.7,0,0,0-21.94,0,21.26,21.26,0,0,0-7.56,7.11,32.21,32.21,0,0,0-4.32,10.67,65.13,65.13,0,0,0,0,26.48,32.16,32.16,0,0,0,4.32,10.66,21.09,21.09,0,0,0,7.56,7.11,24.61,24.61,0,0,0,21.94,0,21.28,21.28,0,0,0,7.57-7.11,32.36,32.36,0,0,0,4.31-10.66A61.52,61.52,0,0,0,342.47,404.59Z"/><path class="cls-1" d="M31.62,478.11v35.51H22.85V478.11H10.17v-8.64H44.29v8.64Z"/><path class="cls-1" d="M79.87,513.62V495.08H61.64v18.54H52.87V469.47h8.77v17H79.87v-17h8.76v44.15Z"/><path class="cls-1" d="M100,513.62V469.47h30.59v8.64H108.75v7.57h12.68v8.64H108.75V505h22.77v8.64Z"/><path class="cls-1" d="M180,513.62h-8.64l-5.42-22.7c-.34-1.35-.64-2.74-.91-4.17s-.48-2.56-.6-3.4c-.09.84-.27,2-.54,3.44s-.58,2.82-.91,4.13l-5.55,22.7h-8.27l-9.21-44.15h9.21L153,491q.31,1.63.63,3.75c.21,1.41.36,2.58.44,3.5.17-.92.4-2.09.7-3.5s.56-2.66.82-3.75l5.17-21.51h7.69L173.69,491c.25,1.09.52,2.34.82,3.75s.52,2.58.69,3.5c.08-.92.23-2.1.44-3.53s.42-2.67.63-3.72l3.85-21.51h9.08Z"/><path class="cls-1" d="M232.78,491.55a31.36,31.36,0,0,1-1.29,9.24,20.92,20.92,0,0,1-3.75,7.19,17.12,17.12,0,0,1-6,4.66,20.39,20.39,0,0,1-16.21,0,17.07,17.07,0,0,1-6-4.66,20.92,20.92,0,0,1-3.75-7.19,33.74,33.74,0,0,1,0-18.48,20.83,20.83,0,0,1,3.75-7.19,17.09,17.09,0,0,1,6-4.67,20.5,20.5,0,0,1,16.21,0,17.15,17.15,0,0,1,6,4.67,20.83,20.83,0,0,1,3.75,7.19A31.27,31.27,0,0,1,232.78,491.55Zm-9.08,0a25.29,25.29,0,0,0-.57-5.52,13.27,13.27,0,0,0-1.79-4.45,8.78,8.78,0,0,0-3.16-3,10.29,10.29,0,0,0-9.14,0,8.83,8.83,0,0,0-3.15,3,13.5,13.5,0,0,0-1.8,4.45,27,27,0,0,0,0,11,13.44,13.44,0,0,0,1.8,4.44,9,9,0,0,0,3.15,3,10.29,10.29,0,0,0,9.14,0,8.9,8.9,0,0,0,3.16-3,13.22,13.22,0,0,0,1.79-4.44A25.42,25.42,0,0,0,223.7,491.55Z"/><path class="cls-1" d="M277.82,491.55a31.36,31.36,0,0,1-1.3,9.24,20.92,20.92,0,0,1-3.75,7.19,17.12,17.12,0,0,1-6,4.66,20.39,20.39,0,0,1-16.21,0,17,17,0,0,1-6-4.66,20.93,20.93,0,0,1-3.76-7.19,33.74,33.74,0,0,1,0-18.48,20.84,20.84,0,0,1,3.76-7.19,17.06,17.06,0,0,1,6-4.67,20.5,20.5,0,0,1,16.21,0,17.15,17.15,0,0,1,6,4.67,20.83,20.83,0,0,1,3.75,7.19A31.26,31.26,0,0,1,277.82,491.55Zm-9.09,0a25.3,25.3,0,0,0-.56-5.52,13.5,13.5,0,0,0-1.8-4.45,8.83,8.83,0,0,0-3.15-3,10.32,10.32,0,0,0-9.15,0,8.83,8.83,0,0,0-3.15,3,13.5,13.5,0,0,0-1.8,4.45,27,27,0,0,0,0,11,13.44,13.44,0,0,0,1.8,4.44,9,9,0,0,0,3.15,3,10.32,10.32,0,0,0,9.15,0,9,9,0,0,0,3.15-3,13.44,13.44,0,0,0,1.8-4.44A25.43,25.43,0,0,0,268.73,491.55Z"/><path class="cls-1" d="M322.6,491.55a23.8,23.8,0,0,1-1.93,10,19.29,19.29,0,0,1-5.11,6.88,20.54,20.54,0,0,1-7.25,3.94,27.88,27.88,0,0,1-8.29,1.26H286.84V469.47h13.81a31,31,0,0,1,8.73,1.17,17.45,17.45,0,0,1,6.94,3.82,17.84,17.84,0,0,1,4.6,6.84A27.63,27.63,0,0,1,322.6,491.55Zm-9.15,0q0-6.72-3.09-10.08t-10.09-3.36H295.6V505H300a16.91,16.91,0,0,0,6-1,11,11,0,0,0,4.19-2.73,11.44,11.44,0,0,0,2.46-4.24A17.29,17.29,0,0,0,313.45,491.55Z"/><path class="cls-1" d="M363.15,500.27a15.63,15.63,0,0,1-1,5.73,11,11,0,0,1-3.15,4.44,14.78,14.78,0,0,1-5.4,2.87,26.47,26.47,0,0,1-7.78,1,23.38,23.38,0,0,1-10.1-2.15,17.16,17.16,0,0,1-7.06-5.86l6.37-5.68a13.73,13.73,0,0,0,5.2,3.88,16,16,0,0,0,6.09,1.16c2.65,0,4.59-.37,5.83-1.13a4,4,0,0,0,1.86-3.66,4.32,4.32,0,0,0-.37-1.86,4,4,0,0,0-1.42-1.48,13.12,13.12,0,0,0-3-1.33q-1.95-.63-5-1.32a45.18,45.18,0,0,1-5.59-1.64,15.8,15.8,0,0,1-4.38-2.4,9.68,9.68,0,0,1-2.84-3.65,13.26,13.26,0,0,1-1-5.49,11.73,11.73,0,0,1,1.23-5.43,12.13,12.13,0,0,1,3.38-4.06,15.4,15.4,0,0,1,5-2.56,22.66,22.66,0,0,1,15.2,1,23.81,23.81,0,0,1,7,5.15L355.83,482a16.19,16.19,0,0,0-4.57-3.37,12.41,12.41,0,0,0-5.45-1.17,10.89,10.89,0,0,0-3,.35,5.89,5.89,0,0,0-1.95.91,3.32,3.32,0,0,0-1.08,1.26,3.44,3.44,0,0,0-.31,1.45,3.14,3.14,0,0,0,1.83,3.08,12.81,12.81,0,0,0,2.71,1.07c1.13.34,2.59.72,4.35,1.13s3.52.92,5.27,1.49a17,17,0,0,1,4.73,2.36,11.16,11.16,0,0,1,4.76,9.75Z"/><polygon class="cls-1" points="104.42 181.32 69.62 0 69.62 362.64 139.23 362.64 104.42 181.32"/><polygon class="cls-1" points="34.81 181.32 0 362.64 69.62 362.64 69.62 0 34.81 181.32"/><polygon class="cls-1" points="216.37 181.32 181.56 0 181.56 362.64 251.18 362.64 216.37 181.32"/><polygon class="cls-1" points="146.75 181.32 111.94 362.64 181.56 362.64 181.56 0 146.75 181.32"/><polygon class="cls-1" points="328.31 181.32 293.5 0 293.5 362.64 363.12 362.64 328.31 181.32"/><polygon class="cls-1" points="258.69 181.32 223.89 362.64 293.5 362.64 293.5 0 258.69 181.32"/></g></g></svg>